<?xml version="1.0" encoding="UTF-8"?>
<svg xmlns="http://www.w3.org/2000/svg" xmlns:xlink="http://www.w3.org/1999/xlink" width="288" height="97.272" viewBox="0 0 288 97.272">
<defs>
<clipPath id="clip-0">
<path clip-rule="nonzero" d="M 1.070312 38 L 28 38 L 28 83 L 1.070312 83 Z M 1.070312 38 "/>
</clipPath>
<clipPath id="clip-1">
<path clip-rule="nonzero" d="M 46 50 L 77 50 L 77 96.550781 L 46 96.550781 Z M 46 50 "/>
</clipPath>
<clipPath id="clip-2">
<path clip-rule="nonzero" d="M 229 0 L 286.929688 0 L 286.929688 93 L 229 93 Z M 229 0 "/>
</clipPath>
<clipPath id="clip-3">
<path clip-rule="nonzero" d="M 267.476562 32.277344 C 286.925781 22.074219 281.308594 7.425781 286.925781 0.164062 C 281.953125 -0.503906 274.769531 0.613281 273.519531 7.566406 C 273.515625 7.566406 273.257812 8.777344 273.257812 8.777344 C 272.039062 7.664062 271.625 7.351562 271.1875 4.851562 C 262.820312 8.398438 247.703125 23.402344 244.566406 33.207031 C 243.945312 35.160156 244.402344 37.308594 245.828125 38.785156 C 245.832031 38.789062 245.835938 38.796875 245.84375 38.800781 C 245.90625 38.863281 245.886719 38.96875 245.804688 39.003906 C 245.1875 39.273438 243.148438 39.890625 241.375 38.402344 C 235.386719 52.355469 238.464844 59.886719 239.027344 61.332031 C 239.039062 61.449219 239.199219 61.472656 239.246094 61.363281 C 242.476562 53.546875 246.671875 45.636719 251.042969 38.453125 L 251.035156 38.460938 C 252.253906 36.488281 249.769531 35.691406 249.910156 31.832031 C 249.914062 31.632812 250.042969 31.476562 250.09375 31.609375 C 250.753906 33.390625 251.722656 34.621094 253.050781 35.214844 C 256.636719 29.558594 260.253906 24.460938 263.480469 20.367188 L 263.574219 20.550781 C 261.273438 24.183594 257.980469 29.511719 254.578125 35.375 C 255.980469 35.796875 259.53125 35.363281 261.453125 34.566406 C 261.609375 34.503906 261.472656 34.820312 261.261719 35.007812 C 258.128906 37.863281 254.648438 35.734375 251.84375 40.167969 C 247.171875 48.5 242.472656 57.691406 239.464844 65.683594 C 239.464844 65.683594 230.152344 89.132812 229.140625 92.089844 C 231.507812 91.199219 231.867188 88.371094 233.253906 87.894531 C 233.300781 87.878906 233.332031 87.84375 233.339844 87.796875 C 233.929688 84.125 236.492188 77.191406 238.566406 71.871094 C 239.035156 71.269531 239.941406 71.125 241.449219 70.714844 C 240.203125 70.351562 239.296875 70.59375 239.035156 70.6875 C 239.199219 70.269531 239.453125 69.523438 239.597656 69.15625 C 240.980469 69.019531 244.792969 68.792969 246.605469 66.921875 C 242.882812 67.558594 241.203125 67.257812 240.480469 66.964844 C 240.648438 66.554688 241.042969 65.613281 241.042969 65.613281 C 257.242188 65.167969 256.210938 56.171875 262.734375 53.230469 C 260.238281 52.816406 256.722656 53.367188 256.722656 53.367188 C 259.195312 51.367188 263.8125 51.761719 266.585938 47.140625 C 263.589844 47.839844 260.800781 47.542969 257.304688 46.183594 C 273.164062 45.917969 265.503906 36.601562 278.804688 31 C 278.929688 30.921875 276.785156 29.273438 267.476562 32.277344 "/>
</clipPath>
<linearGradient id="linear-pattern-0" gradientUnits="userSpaceOnUse" x1="-0.00162777" y1="0" x2="0.999992" y2="0" gradientTransform="matrix(-13.788802, 98.112708, -98.112708, -13.788802, 264.926962, -2.929078)">
<stop offset="0" stop-color="rgb(29.632568%, 70.533752%, 65.26947%)" stop-opacity="1"/>
<stop offset="0.0078125" stop-color="rgb(29.576111%, 70.419312%, 65.184021%)" stop-opacity="1"/>
<stop offset="0.015625" stop-color="rgb(29.446411%, 70.158386%, 64.99176%)" stop-opacity="1"/>
<stop offset="0.0195313" stop-color="rgb(29.31366%, 69.824219%, 64.706421%)" stop-opacity="1"/>
<stop offset="0.0234375" stop-color="rgb(29.251099%, 69.633484%, 64.529419%)" stop-opacity="1"/>
<stop offset="0.0273438" stop-color="rgb(29.191589%, 69.429016%, 64.332581%)" stop-opacity="1"/>
<stop offset="0.03125" stop-color="rgb(29.13208%, 69.224548%, 64.134216%)" stop-opacity="1"/>
<stop offset="0.0351562" stop-color="rgb(29.064941%, 69.065857%, 64.004517%)" stop-opacity="1"/>
<stop offset="0.0390625" stop-color="rgb(28.997803%, 68.90564%, 63.874817%)" stop-opacity="1"/>
<stop offset="0.046875" stop-color="rgb(28.927612%, 68.763733%, 63.769531%)" stop-opacity="1"/>
<stop offset="0.0507812" stop-color="rgb(28.794861%, 68.437195%, 63.542175%)" stop-opacity="1"/>
<stop offset="0.0546875" stop-color="rgb(28.7323%, 68.252563%, 63.420105%)" stop-opacity="1"/>
<stop offset="0.0585938" stop-color="rgb(28.674316%, 68.054199%, 63.291931%)" stop-opacity="1"/>
<stop offset="0.0625" stop-color="rgb(28.616333%, 67.854309%, 63.163757%)" stop-opacity="1"/>
<stop offset="0.0703125" stop-color="rgb(28.543091%, 67.733765%, 63.067627%)" stop-opacity="1"/>
<stop offset="0.078125" stop-color="rgb(28.387451%, 67.527771%, 62.890625%)" stop-opacity="1"/>
<stop offset="0.0820313" stop-color="rgb(28.239441%, 67.285156%, 62.698364%)" stop-opacity="1"/>
<stop offset="0.0859375" stop-color="rgb(28.173828%, 67.127991%, 62.588501%)" stop-opacity="1"/>
<stop offset="0.0898438" stop-color="rgb(28.115845%, 66.929626%, 62.461853%)" stop-opacity="1"/>
<stop offset="0.09375" stop-color="rgb(28.059387%, 66.732788%, 62.333679%)" stop-opacity="1"/>
<stop offset="0.0976562" stop-color="rgb(27.981567%, 66.53595%, 62.190247%)" stop-opacity="1"/>
<stop offset="0.101562" stop-color="rgb(27.900696%, 66.339111%, 62.045288%)" stop-opacity="1"/>
<stop offset="0.109375" stop-color="rgb(27.809143%, 66.143799%, 61.889648%)" stop-opacity="1"/>
<stop offset="0.117188" stop-color="rgb(27.638245%, 65.782166%, 61.610413%)" stop-opacity="1"/>
<stop offset="0.125" stop-color="rgb(27.494812%, 65.483093%, 61.384583%)" stop-opacity="1"/>
<stop offset="0.132812" stop-color="rgb(27.357483%, 65.206909%, 61.181641%)" stop-opacity="1"/>
<stop offset="0.140625" stop-color="rgb(27.22168%, 64.932251%, 60.980225%)" stop-opacity="1"/>
<stop offset="0.148438" stop-color="rgb(27.082825%, 64.686584%, 60.78949%)" stop-opacity="1"/>
<stop offset="0.15625" stop-color="rgb(26.928711%, 64.498901%, 60.624695%)" stop-opacity="1"/>
<stop offset="0.164063" stop-color="rgb(26.77002%, 64.253235%, 60.418701%)" stop-opacity="1"/>
<stop offset="0.167969" stop-color="rgb(26.61438%, 63.839722%, 60.119629%)" stop-opacity="1"/>
<stop offset="0.171875" stop-color="rgb(26.538086%, 63.594055%, 59.945679%)" stop-opacity="1"/>
<stop offset="0.175781" stop-color="rgb(26.504517%, 63.438416%, 59.814453%)" stop-opacity="1"/>
<stop offset="0.179688" stop-color="rgb(26.469421%, 63.28125%, 59.681702%)" stop-opacity="1"/>
<stop offset="0.1875" stop-color="rgb(26.483154%, 63.224792%, 59.597778%)" stop-opacity="1"/>
<stop offset="0.195312" stop-color="rgb(26.473999%, 63.075256%, 59.449768%)" stop-opacity="1"/>
<stop offset="0.203125" stop-color="rgb(26.383972%, 62.852478%, 59.350586%)" stop-opacity="1"/>
<stop offset="0.210938" stop-color="rgb(26.281738%, 62.573242%, 59.228516%)" stop-opacity="1"/>
<stop offset="0.21875" stop-color="rgb(26.246643%, 62.258911%, 58.982849%)" stop-opacity="1"/>
<stop offset="0.226563" stop-color="rgb(26.225281%, 61.938477%, 58.691406%)" stop-opacity="1"/>
<stop offset="0.234375" stop-color="rgb(26.13678%, 61.651611%, 58.459473%)" stop-opacity="1"/>
<stop offset="0.242188" stop-color="rgb(26.029968%, 61.375427%, 58.244324%)" stop-opacity="1"/>
<stop offset="0.25" stop-color="rgb(25.994873%, 61.065674%, 57.971191%)" stop-opacity="1"/>
<stop offset="0.257812" stop-color="rgb(25.973511%, 60.765076%, 57.687378%)" stop-opacity="1"/>
<stop offset="0.265625" stop-color="rgb(25.872803%, 60.552979%, 57.484436%)" stop-opacity="1"/>
<stop offset="0.273438" stop-color="rgb(25.715637%, 60.368347%, 57.3349%)" stop-opacity="1"/>
<stop offset="0.28125" stop-color="rgb(25.550842%, 60.07843%, 57.173157%)" stop-opacity="1"/>
<stop offset="0.289063" stop-color="rgb(25.382996%, 59.729004%, 57.000732%)" stop-opacity="1"/>
<stop offset="0.296875" stop-color="rgb(25.239563%, 59.432983%, 56.819153%)" stop-opacity="1"/>
<stop offset="0.304688" stop-color="rgb(25.106812%, 59.17511%, 56.62384%)" stop-opacity="1"/>
<stop offset="0.3125" stop-color="rgb(24.937439%, 58.920288%, 56.401062%)" stop-opacity="1"/>
<stop offset="0.328125" stop-color="rgb(24.754333%, 58.564758%, 56.02417%)" stop-opacity="1"/>
<stop offset="0.34375" stop-color="rgb(24.571228%, 58.161926%, 55.583191%)" stop-opacity="1"/>
<stop offset="0.359375" stop-color="rgb(24.403381%, 57.804871%, 55.252075%)" stop-opacity="1"/>
<stop offset="0.375" stop-color="rgb(24.215698%, 57.388306%, 54.91333%)" stop-opacity="1"/>
<stop offset="0.382813" stop-color="rgb(24.015808%, 57.029724%, 54.602051%)" stop-opacity="1"/>
<stop offset="0.390625" stop-color="rgb(23.934937%, 56.747437%, 54.394531%)" stop-opacity="1"/>
<stop offset="0.398438" stop-color="rgb(23.944092%, 56.442261%, 54.214478%)" stop-opacity="1"/>
<stop offset="0.40625" stop-color="rgb(23.963928%, 56.240845%, 54.046631%)" stop-opacity="1"/>
<stop offset="0.421875" stop-color="rgb(23.88916%, 56.008911%, 53.829956%)" stop-opacity="1"/>
<stop offset="0.4375" stop-color="rgb(23.701477%, 55.609131%, 53.504944%)" stop-opacity="1"/>
<stop offset="0.453125" stop-color="rgb(23.500061%, 55.162048%, 53.131104%)" stop-opacity="1"/>
<stop offset="0.46875" stop-color="rgb(23.31543%, 54.766846%, 52.810669%)" stop-opacity="1"/>
<stop offset="0.484375" stop-color="rgb(23.15979%, 54.425049%, 52.484131%)" stop-opacity="1"/>
<stop offset="0.5" stop-color="rgb(22.97821%, 54.03595%, 52.108765%)" stop-opacity="1"/>
<stop offset="0.515625" stop-color="rgb(22.854614%, 53.614807%, 51.785278%)" stop-opacity="1"/>
<stop offset="0.53125" stop-color="rgb(22.840881%, 53.2547%, 51.507568%)" stop-opacity="1"/>
<stop offset="0.546875" stop-color="rgb(22.784424%, 52.938843%, 51.229858%)" stop-opacity="1"/>
<stop offset="0.5625" stop-color="rgb(22.607422%, 52.565002%, 50.968933%)" stop-opacity="1"/>
<stop offset="0.578125" stop-color="rgb(22.476196%, 52.148438%, 50.668335%)" stop-opacity="1"/>
<stop offset="0.59375" stop-color="rgb(22.389221%, 51.812744%, 50.346375%)" stop-opacity="1"/>
<stop offset="0.609375" stop-color="rgb(22.207642%, 51.586914%, 50.163269%)" stop-opacity="1"/>
<stop offset="0.625" stop-color="rgb(22.093201%, 51.333618%, 49.990845%)" stop-opacity="1"/>
<stop offset="0.640625" stop-color="rgb(22.053528%, 51.028442%, 49.717712%)" stop-opacity="1"/>
<stop offset="0.65625" stop-color="rgb(21.882629%, 50.671387%, 49.459839%)" stop-opacity="1"/>
<stop offset="0.671875" stop-color="rgb(21.7453%, 50.320435%, 49.214172%)" stop-opacity="1"/>
<stop offset="0.6875" stop-color="rgb(21.731567%, 50.128174%, 48.977661%)" stop-opacity="1"/>
<stop offset="0.703125" stop-color="rgb(21.707153%, 49.905396%, 48.744202%)" stop-opacity="1"/>
<stop offset="0.71875" stop-color="rgb(21.614075%, 49.659729%, 48.530579%)" stop-opacity="1"/>
<stop offset="0.734375" stop-color="rgb(21.41571%, 49.513245%, 48.34137%)" stop-opacity="1"/>
<stop offset="0.75" stop-color="rgb(21.278381%, 49.295044%, 48.143005%)" stop-opacity="1"/>
<stop offset="0.765625" stop-color="rgb(21.264648%, 49.105835%, 48.013306%)" stop-opacity="1"/>
<stop offset="0.78125" stop-color="rgb(21.24939%, 48.913574%, 47.880554%)" stop-opacity="1"/>
<stop offset="0.796875" stop-color="rgb(21.234131%, 48.724365%, 47.75238%)" stop-opacity="1"/>
<stop offset="0.8125" stop-color="rgb(21.218872%, 48.532104%, 47.619629%)" stop-opacity="1"/>
<stop offset="0.828125" stop-color="rgb(21.185303%, 48.355103%, 47.491455%)" stop-opacity="1"/>
<stop offset="0.84375" stop-color="rgb(21.044922%, 48.214722%, 47.354126%)" stop-opacity="1"/>
<stop offset="0.875" stop-color="rgb(20.890808%, 48.013306%, 47.157288%)" stop-opacity="1"/>
<stop offset="0.90625" stop-color="rgb(20.857239%, 47.924805%, 47.073364%)" stop-opacity="1"/>
<stop offset="0.921875" stop-color="rgb(20.881653%, 47.821045%, 47.027588%)" stop-opacity="1"/>
<stop offset="0.9375" stop-color="rgb(20.863342%, 47.637939%, 46.899414%)" stop-opacity="1"/>
<stop offset="1" stop-color="rgb(20.825195%, 47.549438%, 46.812439%)" stop-opacity="1"/>
</linearGradient>
</defs>
<g clip-path="url(#clip-0)">
<path fill-rule="nonzero" fill="rgb(20.796204%, 47.558594%, 46.789551%)" fill-opacity="1" d="M 12.5 82.558594 C 9.269531 82.558594 5.355469 81.753906 2.625 80.507812 L 1.074219 71.441406 L 2.253906 71.132812 L 3.746094 74.488281 C 4.921875 77.15625 7.71875 79.703125 12.9375 79.703125 C 17.59375 79.703125 22.066406 77.15625 22.066406 71.878906 C 22.066406 67.65625 18.585938 65.292969 15.234375 63.742188 L 11.195312 61.816406 C 6.789062 59.769531 2.503906 56.351562 2.503906 50.699219 C 2.503906 43.125 9.144531 38.777344 16.164062 38.777344 C 17.15625 38.777344 19.023438 38.839844 20.945312 39.210938 C 23.433594 39.710938 24.300781 39.894531 24.609375 38.964844 L 24.859375 38.21875 L 25.976562 38.21875 L 25.976562 49.769531 L 24.734375 49.769531 L 23.988281 46.355469 C 23.433594 44.054688 21.128906 41.449219 15.667969 41.449219 C 11.820312 41.449219 8.089844 43.746094 8.089844 48.03125 C 8.089844 51.757812 11.695312 53.929688 15.167969 55.546875 L 19.082031 57.410156 C 23.492188 59.460938 27.964844 62.875 27.964844 68.894531 C 27.964844 78.027344 20.324219 82.558594 12.5 82.558594 "/>
</g>
<path fill-rule="nonzero" fill="rgb(20.796204%, 47.558594%, 46.789551%)" fill-opacity="1" d="M 37.488281 45.207031 C 34.570312 45.207031 33.703125 43.15625 33.703125 41.480469 C 33.703125 39.867188 34.695312 37.753906 37.550781 37.753906 C 40.09375 37.753906 41.460938 39.246094 41.460938 41.480469 C 41.460938 43.839844 39.910156 45.207031 37.488281 45.207031 Z M 29.847656 81.90625 L 29.847656 81.101562 L 31.960938 80.542969 C 34.132812 79.921875 34.507812 79.609375 34.507812 75.078125 L 34.507812 59.363281 C 34.507812 54.832031 34.132812 54.460938 31.835938 54.023438 L 29.417969 53.464844 L 29.417969 52.65625 L 40.21875 51.167969 L 40.597656 51.417969 L 40.597656 75.078125 C 40.597656 79.609375 40.90625 79.921875 43.078125 80.542969 L 45.25 81.101562 L 45.25 81.90625 L 29.847656 81.90625 "/>
<g clip-path="url(#clip-1)">
<path fill-rule="nonzero" fill="rgb(20.796204%, 47.558594%, 46.789551%)" fill-opacity="1" d="M 59.417969 52.460938 C 55.9375 52.460938 54.445312 55.378906 54.445312 58.859375 C 54.445312 62.582031 56.308594 67.675781 60.410156 67.675781 C 63.824219 67.675781 65.378906 64.757812 65.378906 61.28125 C 65.378906 57.675781 63.453125 52.460938 59.417969 52.460938 Z M 62.085938 81.523438 L 55.378906 81.523438 C 52.769531 81.523438 50.722656 83.761719 50.722656 86.804688 C 50.722656 92.144531 55.875 94.253906 60.347656 94.253906 C 64.632812 94.253906 69.539062 91.957031 69.539062 87.363281 C 69.539062 83.015625 65.808594 81.523438 62.085938 81.523438 Z M 58.484375 96.554688 C 53.578125 96.554688 46.0625 94.253906 46.0625 88.355469 C 46.0625 84.570312 49.417969 82.019531 52.210938 81.089844 L 52.210938 81.027344 C 48.921875 80.71875 46.246094 78.730469 46.246094 75.75 C 46.246094 73.574219 47.863281 71.835938 49.480469 70.472656 L 52.710938 67.863281 C 50.164062 66.496094 48.425781 63.949219 48.425781 60.347656 C 48.425781 54.199219 53.949219 50.597656 60.285156 50.597656 C 63.453125 50.597656 66.554688 51.53125 68.667969 53.453125 C 70.40625 51.46875 72.023438 50.347656 73.824219 50.347656 C 75.375 50.347656 76.679688 51.59375 76.679688 53.082031 C 76.679688 54.449219 75.5 55.566406 74.320312 55.566406 L 73.949219 55.316406 C 73.636719 54.632812 72.828125 53.703125 71.585938 53.703125 C 70.65625 53.703125 70.160156 54.078125 69.664062 54.511719 C 70.714844 55.875 71.402344 57.613281 71.402344 59.726562 C 71.402344 66 65.625 69.476562 59.539062 69.476562 C 57.742188 69.476562 56 69.167969 54.386719 68.609375 L 52.398438 70.285156 C 51.402344 71.089844 50.660156 72.085938 50.660156 73.078125 C 50.660156 75.003906 52.769531 76.308594 55.9375 76.308594 L 64.445312 76.246094 C 69.289062 76.183594 73.882812 78.480469 73.882812 84.503906 C 73.882812 91.398438 67.300781 96.554688 58.484375 96.554688 "/>
</g>
<path fill-rule="nonzero" fill="rgb(20.796204%, 47.558594%, 46.789551%)" fill-opacity="1" d="M 99.042969 81.910156 L 99.042969 81.101562 L 101.15625 80.542969 C 103.328125 79.921875 103.703125 79.613281 103.703125 75.078125 L 103.703125 61.789062 C 103.703125 57.628906 100.972656 55.019531 96.5 55.019531 C 92.527344 55.019531 89.914062 57.253906 89.914062 59.242188 L 89.914062 75.078125 C 89.914062 79.613281 90.222656 79.921875 92.402344 80.542969 L 94.574219 81.101562 L 94.574219 81.910156 L 79.171875 81.910156 L 79.171875 81.101562 L 81.285156 80.542969 C 83.457031 79.921875 83.832031 79.613281 83.832031 75.078125 L 83.832031 59.367188 C 83.832031 54.832031 83.457031 54.460938 81.160156 54.023438 L 78.734375 53.46875 L 78.734375 52.660156 L 89.171875 51.167969 L 89.542969 51.417969 L 89.542969 56.074219 L 89.601562 56.074219 C 92.585938 53.15625 95.628906 50.859375 100.039062 50.859375 C 106.0625 50.859375 109.785156 54.460938 109.785156 60.359375 L 109.785156 75.078125 C 109.785156 79.613281 110.097656 79.921875 112.273438 80.542969 L 114.445312 81.101562 L 114.445312 81.910156 L 99.042969 81.910156 "/>
<path fill-rule="nonzero" fill="rgb(20.796204%, 47.558594%, 46.789551%)" fill-opacity="1" d="M 131.988281 66.535156 C 123.292969 67.839844 121.617188 70.324219 121.617188 73.617188 C 121.617188 76.472656 124.164062 78.273438 126.832031 78.273438 C 130 78.273438 131.988281 76.285156 131.988281 74.425781 Z M 137.144531 82.433594 C 134.039062 82.433594 132.546875 80.449219 132.484375 77.527344 L 132.363281 77.527344 C 130.3125 79.515625 127.394531 82.558594 122.921875 82.558594 C 119.195312 82.558594 115.410156 79.765625 115.410156 75.417969 C 115.410156 68.277344 122.050781 66.472656 131.988281 64.550781 L 131.988281 60.449219 C 131.988281 56.351562 129.566406 53.804688 125.84375 53.804688 C 122.363281 53.804688 121.492188 55.730469 121.492188 57.78125 L 121.492188 59.148438 L 121.371094 59.457031 C 120.625 59.890625 119.570312 60.203125 118.765625 60.203125 C 117.769531 60.203125 117.085938 59.707031 117.085938 58.527344 C 117.085938 56.597656 119.132812 54.488281 120.6875 53.433594 C 122.738281 52.003906 125.40625 50.824219 128.324219 50.824219 C 135.402344 50.824219 138.015625 55.109375 138.015625 60.945312 L 138.015625 74.300781 C 138.015625 77.777344 138.511719 79.390625 140.871094 79.390625 C 141.675781 79.390625 142.609375 79.144531 143.230469 78.832031 L 143.664062 79.703125 C 142.300781 81.007812 139.441406 82.433594 137.144531 82.433594 "/>
<path fill-rule="nonzero" fill="rgb(20.796204%, 47.558594%, 46.789551%)" fill-opacity="1" d="M 153.882812 82.558594 C 148.726562 82.558594 146.175781 78.957031 146.175781 73.617188 L 146.175781 55.792969 L 141.707031 55.792969 L 141.457031 55.546875 L 142.015625 53.558594 C 146.117188 53 148.230469 50.144531 151.394531 46.042969 L 152.265625 46.230469 L 152.265625 53.0625 L 161.640625 52.75 L 161.640625 55.546875 L 161.394531 55.792969 L 152.265625 55.792969 L 152.265625 72.746094 C 152.265625 76.847656 154.128906 78.898438 157.296875 78.898438 C 159.34375 78.898438 161.332031 78.089844 162.570312 77.21875 L 163.316406 78.210938 C 160.707031 80.574219 157.730469 82.558594 153.882812 82.558594 "/>
<path fill-rule="nonzero" fill="rgb(20.796204%, 47.558594%, 46.789551%)" fill-opacity="1" d="M 165.4375 81.910156 L 165.4375 81.101562 L 167.609375 80.542969 C 169.78125 79.921875 170.09375 79.613281 170.09375 75.078125 L 170.09375 59.367188 C 170.09375 54.832031 169.347656 54.460938 167.046875 54.023438 L 164.625 53.46875 L 164.625 52.660156 L 175.433594 51.167969 L 175.804688 51.417969 L 175.804688 56.507812 L 175.867188 56.507812 C 178.910156 52.722656 181.269531 50.859375 184.1875 50.859375 C 186.550781 50.859375 188.347656 52.597656 188.347656 54.894531 C 188.347656 57.003906 186.484375 58.496094 184.75 58.4375 L 184.375 58.3125 C 183.816406 56.945312 182.390625 55.828125 180.589844 55.828125 C 177.855469 55.828125 176.179688 57.875 176.179688 59.488281 L 176.179688 75.078125 C 176.179688 79.613281 176.800781 79.859375 178.972656 80.355469 L 182.328125 81.101562 L 182.328125 81.910156 L 165.4375 81.910156 "/>
<path fill-rule="nonzero" fill="rgb(20.796204%, 47.558594%, 46.789551%)" fill-opacity="1" d="M 192.65625 91.648438 C 192.65625 89.535156 194.332031 88.167969 195.820312 88.167969 L 196.132812 88.292969 C 196.570312 89.410156 197.625 90.34375 198.925781 90.34375 C 201.722656 90.34375 203.585938 86.121094 205.261719 81.402344 L 194.832031 58.234375 C 192.84375 53.949219 192.71875 53.207031 191.414062 52.769531 L 189.988281 52.210938 L 189.988281 51.40625 L 204.394531 51.40625 L 204.394531 52.210938 L 202.28125 52.832031 C 200.417969 53.328125 199.796875 54.511719 201.847656 59.355469 L 206.566406 70.40625 C 207.4375 72.519531 207.746094 73.574219 207.871094 74.632812 L 208.058594 74.632812 C 208.183594 73.574219 208.554688 72.519531 209.300781 70.34375 L 212.960938 59.476562 C 214.765625 54.136719 213.894531 53.328125 211.972656 52.832031 L 209.796875 52.210938 L 209.796875 51.40625 L 221.039062 51.40625 L 221.039062 52.210938 L 219.796875 52.769531 C 218.554688 53.328125 218.058594 53.890625 216.5 58.234375 L 207.996094 81.898438 C 205.203125 89.535156 201.476562 95.496094 196.941406 95.496094 C 194.582031 95.496094 192.65625 93.882812 192.65625 91.648438 "/>
<path fill-rule="nonzero" fill="rgb(20.796204%, 47.558594%, 46.789551%)" fill-opacity="1" d="M 48.414062 44.78125 L 48.414062 44.265625 L 50.398438 43.824219 C 51.90625 43.492188 52.128906 43.199219 52.128906 40.035156 L 52.128906 21.570312 L 49.519531 21.570312 C 45.398438 21.570312 44.515625 22.269531 44.21875 23.667969 L 43.777344 25.875 L 43.152344 25.875 L 43.152344 18.996094 L 43.742188 18.996094 L 43.890625 19.4375 C 44.074219 19.988281 44.480469 20.0625 47.125 20.0625 L 60.542969 20.0625 C 63.191406 20.0625 63.597656 19.988281 63.78125 19.4375 L 63.929688 18.996094 L 64.515625 18.996094 L 64.515625 25.875 L 63.890625 25.875 L 63.449219 23.667969 C 63.15625 22.269531 62.273438 21.570312 58.152344 21.570312 L 55.878906 21.570312 L 55.878906 40.035156 C 55.878906 43.199219 56.101562 43.492188 57.609375 43.824219 L 59.59375 44.265625 L 59.59375 44.78125 L 48.414062 44.78125 "/>
<path fill-rule="nonzero" fill="rgb(20.796204%, 47.558594%, 46.789551%)" fill-opacity="1" d="M 85.671875 43.972656 C 84.382812 43.640625 84.199219 43.417969 84.199219 40.734375 L 84.199219 33.476562 C 84.199219 29.984375 81.992188 27.851562 78.425781 27.851562 C 75.941406 27.851562 74.191406 29.085938 72.503906 30.726562 L 72.503906 17.488281 L 72.285156 17.339844 L 66.253906 18.222656 L 66.253906 18.664062 L 67.757812 18.996094 C 69.121094 19.289062 69.34375 19.472656 69.34375 23.546875 L 69.34375 42.121094 C 69.34375 43.417969 69.15625 43.640625 67.871094 43.972656 L 66.507812 44.339844 L 66.507812 44.78125 L 75.335938 44.78125 L 75.335938 44.339844 L 73.976562 43.972656 C 72.6875 43.640625 72.503906 43.417969 72.503906 40.734375 L 72.503906 32.28125 C 72.851562 31.207031 74.363281 30.167969 76.546875 30.167969 C 79.34375 30.167969 81.035156 31.75 81.035156 34.289062 L 81.035156 40.734375 C 81.035156 43.417969 80.851562 43.640625 79.5625 43.972656 L 78.203125 44.339844 L 78.203125 44.78125 L 87.03125 44.78125 L 87.03125 44.339844 L 85.671875 43.972656 "/>
<path fill-rule="nonzero" fill="rgb(20.796204%, 47.558594%, 46.789551%)" fill-opacity="1" d="M 99.628906 34.015625 C 99.628906 33.378906 99.515625 32.792969 99.292969 32.25 C 99.070312 31.707031 98.765625 31.234375 98.382812 30.832031 C 97.996094 30.429688 97.546875 30.117188 97.03125 29.890625 C 96.511719 29.664062 95.960938 29.550781 95.371094 29.550781 C 94.875 29.550781 94.402344 29.664062 93.953125 29.890625 C 93.5 30.117188 93.101562 30.429688 92.753906 30.832031 C 92.40625 31.234375 92.113281 31.707031 91.878906 32.25 C 91.644531 32.792969 91.503906 33.378906 91.457031 34.015625 Z M 96.363281 45.71875 C 95.242188 45.71875 94.195312 45.507812 93.222656 45.085938 C 92.25 44.667969 91.394531 44.089844 90.660156 43.359375 C 89.925781 42.628906 89.351562 41.769531 88.929688 40.789062 C 88.507812 39.808594 88.296875 38.757812 88.296875 37.636719 C 88.296875 36.292969 88.492188 35.054688 88.875 33.914062 C 89.261719 32.773438 89.804688 31.789062 90.515625 30.960938 C 91.226562 30.132812 92.078125 29.480469 93.070312 29.011719 C 94.0625 28.542969 95.171875 28.308594 96.398438 28.308594 C 97.480469 28.308594 98.46875 28.5 99.367188 28.886719 C 100.261719 29.269531 101.03125 29.785156 101.675781 30.4375 C 102.316406 31.089844 102.820312 31.839844 103.179688 32.6875 C 103.511719 33.457031 103.6875 34.261719 103.71875 35.097656 L 103.605469 35.347656 L 91.4375 35.347656 C 91.4375 36.472656 91.578125 37.511719 91.863281 38.46875 C 92.140625 39.425781 92.542969 40.25 93.058594 40.945312 C 93.578125 41.640625 94.191406 42.1875 94.902344 42.582031 C 95.609375 42.976562 96.390625 43.175781 97.246094 43.175781 C 97.953125 43.175781 98.636719 43.0625 99.292969 42.828125 C 99.949219 42.597656 100.542969 42.289062 101.078125 41.90625 C 101.613281 41.519531 102.070312 41.085938 102.441406 40.597656 C 102.8125 40.109375 103.078125 39.605469 103.234375 39.082031 L 104.15625 39.5 C 103.914062 40.355469 103.535156 41.160156 103.019531 41.914062 C 102.5 42.671875 101.894531 43.328125 101.1875 43.890625 C 100.484375 44.453125 99.71875 44.894531 98.886719 45.222656 C 98.058594 45.554688 97.214844 45.71875 96.363281 45.71875 "/>
<g clip-path="url(#clip-2)">
<g clip-path="url(#clip-3)">
<path fill-rule="nonzero" fill="url(#linear-pattern-0)" d="M 299.621094 1.785156 L 230.257812 -7.964844 L 216.445312 90.308594 L 285.808594 100.054688 Z M 299.621094 1.785156 "/>
</g>
</g>
<path fill-rule="nonzero" fill="rgb(21.273804%, 48.400879%, 47.180176%)" fill-opacity="1" d="M 226.195312 53.890625 C 226.355469 53.890625 226.457031 53.863281 226.507812 53.804688 C 226.554688 53.75 226.578125 53.675781 226.578125 53.589844 C 226.578125 53.496094 226.546875 53.429688 226.484375 53.378906 C 226.421875 53.332031 226.300781 53.308594 226.128906 53.308594 L 225.816406 53.308594 L 225.816406 53.890625 Z M 225.222656 52.835938 L 226.140625 52.835938 C 226.359375 52.835938 226.535156 52.855469 226.671875 52.898438 C 226.8125 52.941406 226.921875 52.996094 227 53.0625 C 227.078125 53.128906 227.128906 53.207031 227.15625 53.292969 C 227.183594 53.375 227.195312 53.464844 227.195312 53.554688 C 227.195312 53.726562 227.167969 53.863281 227.109375 53.964844 C 227.054688 54.0625 226.957031 54.15625 226.8125 54.238281 L 227.320312 55.214844 L 226.644531 55.214844 L 226.242188 54.371094 L 225.816406 54.371094 L 225.816406 55.214844 L 225.222656 55.214844 Z M 226.1875 55.988281 C 226.71875 55.988281 227.144531 55.824219 227.46875 55.492188 C 227.792969 55.164062 227.957031 54.691406 227.957031 54.070312 C 227.957031 53.449219 227.792969 52.972656 227.46875 52.644531 C 227.144531 52.316406 226.71875 52.152344 226.1875 52.152344 C 225.65625 52.152344 225.230469 52.316406 224.90625 52.644531 C 224.585938 52.972656 224.425781 53.449219 224.425781 54.070312 C 224.425781 54.691406 224.585938 55.164062 224.90625 55.492188 C 225.230469 55.824219 225.65625 55.988281 226.1875 55.988281 Z M 226.1875 56.535156 C 225.828125 56.535156 225.5 56.480469 225.207031 56.367188 C 224.910156 56.257812 224.65625 56.09375 224.449219 55.878906 C 224.238281 55.667969 224.074219 55.410156 223.960938 55.101562 C 223.84375 54.792969 223.785156 54.449219 223.785156 54.070312 C 223.785156 53.6875 223.847656 53.347656 223.972656 53.042969 C 224.09375 52.742188 224.265625 52.484375 224.480469 52.269531 C 224.699219 52.054688 224.953125 51.894531 225.242188 51.777344 C 225.535156 51.660156 225.847656 51.601562 226.1875 51.601562 C 226.550781 51.601562 226.882812 51.660156 227.179688 51.777344 C 227.472656 51.894531 227.726562 52.054688 227.9375 52.269531 C 228.144531 52.484375 228.308594 52.742188 228.421875 53.042969 C 228.539062 53.347656 228.597656 53.6875 228.597656 54.070312 C 228.597656 54.449219 228.535156 54.792969 228.414062 55.101562 C 228.289062 55.410156 228.121094 55.667969 227.902344 55.878906 C 227.683594 56.09375 227.429688 56.257812 227.132812 56.367188 C 226.839844 56.480469 226.523438 56.535156 226.1875 56.535156 "/>
</svg>
