<?xml version='1.0' encoding='UTF-8'?>
<svg xmlns="http://www.w3.org/2000/svg" version="1.1" viewBox="0 0 110 110" width="110" height="110" style="color:#37a49f" id="SIG_Icon20_Contribute_RGB">
  <g transform="translate(15.9614,5.0010) scale(0.749973,0.749986)"><g>
    <g id="group-R5">
      <path id="path2" d="m 298.926,554.457 c -3.344,7.578 -12.18,11.016 -19.781,7.672 -11.938,-5.27 -23.61,-11.449 -34.692,-18.379 -7.019,-4.395 -9.156,-13.648 -4.765,-20.676 2.847,-4.551 7.734,-7.043 12.734,-7.043 2.715,0 5.469,0.735 7.937,2.278 9.871,6.171 20.266,11.679 30.895,16.367 7.578,3.347 11.012,12.199 7.672,19.781" style="fill:currentColor;fill-opacity:1;fill-rule:nonzero;stroke:none" transform="matrix(0.13333333,0,0,-0.13333333,0,133.33333)"/>
      <path id="path3" d="m 204.418,513.262 c -2.938,-2.699 -5.82,-5.461 -8.637,-8.282 -5.855,-5.863 -5.843,-15.363 0.02,-21.21 2.926,-2.926 6.762,-4.387 10.594,-4.387 3.843,0 7.687,1.472 10.617,4.406 2.504,2.508 5.074,4.965 7.691,7.363 6.102,5.602 6.512,15.094 0.91,21.196 -5.609,6.109 -15.093,6.519 -21.195,0.914" style="fill:currentColor;fill-opacity:1;fill-rule:nonzero;stroke:none" transform="matrix(0.13333333,0,0,-0.13333333,0,133.33333)"/>
      <path id="path4" d="m 158.355,769.203 c 0,-17.816 8.071,-33.769 20.731,-44.441 -5.293,-4.864 -9.871,-10.598 -13.285,-17.242 -10.621,-20.684 -8.793,-45.27 4.758,-64.161 l 52.3,-72.929 c 2.93,-4.086 7.532,-6.262 12.204,-6.262 3.023,0 6.082,0.914 8.726,2.812 6.734,4.825 8.277,14.2 3.445,20.93 l -52.3,72.93 c -7.075,9.859 -7.985,22.187 -2.446,32.976 5.539,10.793 16.09,17.235 28.219,17.235 h 60.234 52.707 c 8.286,0 15,6.711 15,15 0,8.285 -6.714,15 -15,15 h -52.707 -60.234 -4.191 c -15.532,0 -28.161,12.629 -28.161,28.152 0,15.524 12.629,28.156 28.161,28.156 h 117.132 c 8.286,0 15,6.711 15,15 0,8.286 -6.714,15 -15,15 H 216.516 c -15.532,0 -28.161,12.629 -28.161,28.153 0,15.523 12.629,28.156 28.161,28.156 h 117.132 c 8.286,0 15,6.711 15,15 0,8.285 -6.714,15 -15,15 H 216.516 c -15.532,0 -28.161,12.629 -28.161,28.156 0,15.524 12.629,28.156 28.161,28.156 h 349.832 c 81.086,0 147.05,-65.968 147.05,-147.054 V 717.207 c 0,-41.066 -24.117,-78.668 -61.433,-95.789 L 517.961,559.922 C 510.258,556.387 502.543,552.5 494.965,548.34 L 382.328,485.59 c -10.582,-5.899 -23.961,-3.481 -31.82,5.726 -9.055,10.606 -7.863,26.676 2.66,35.829 l 109.668,95.363 c 4.723,4.109 6.398,10.715 4.207,16.574 -2.195,5.859 -7.789,9.746 -14.051,9.746 H 319.137 c -5.235,0 -10.094,-2.73 -12.813,-7.203 -2.726,-4.473 -2.918,-10.043 -0.508,-14.691 l 14.512,-28.043 c 3.809,-7.352 12.86,-10.239 20.215,-6.426 7.355,3.805 10.234,12.855 6.426,20.215 l -3.18,6.148 h 69.098 L 333.48,549.781 c -22.89,-19.91 -25.488,-54.875 -5.785,-77.941 10.825,-12.684 26.461,-19.438 42.317,-19.438 9.199,0 18.472,2.274 26.922,6.981 l 112.554,62.703 c 6.875,3.777 13.934,7.332 20.985,10.57 l 134,61.492 c 47.945,22 78.925,70.305 78.925,123.059 v 105.719 c 0,97.625 -79.421,177.054 -177.05,177.054 H 216.516 c -32.075,0 -58.161,-26.089 -58.161,-58.156 0,-17.129 7.489,-32.504 19.309,-43.156 -11.82,-10.656 -19.309,-26.027 -19.309,-43.156 0,-17.129 7.489,-32.5 19.309,-43.153 -11.82,-10.656 -19.309,-26.027 -19.309,-43.156" style="fill:currentColor;fill-opacity:1;fill-rule:nonzero;stroke:none" transform="matrix(0.13333333,0,0,-0.13333333,0,133.33333)"/>
      <path id="path5" d="M 390.387,30 C 157.203,30 30,72.5742 30,94.4414 V 145.68 c 39.3594,-23.289 112.363,-37.496 187.961,-45.555 1.004,-0.2031 1.996,-0.5273 3.016,-0.5273 0.316,0 0.628,0.0781 0.949,0.0976 54.836,-5.6758 110.679,-8.168 155.64,-8.5625 4.051,-0.2265 8.122,-0.3555 12.223,-0.3555 4.078,0 8.125,0.129 12.149,0.3516 44.718,0.3516 100.398,2.7734 155.214,8.3867 0.309,-0.0195 0.614,-0.0976 0.918,-0.0976 0.993,0 1.953,0.3164 2.93,0.5117 76.234,8.0233 150.098,22.2773 189.77,45.7503 V 94.4414 C 750.77,72.5742 623.57,30 390.387,30 Z m 305.039,217.445 c -7.946,2.246 -16.262,-2.367 -18.524,-10.347 -2.254,-7.969 2.375,-16.258 10.348,-18.52 51.852,-14.691 63.52,-29.156 63.52,-33.062 0,-11.672 -47.938,-35.86 -151.739,-51.055 41.492,49.113 64.66,111.543 64.66,176.793 0,79.801 -34.691,155.48 -95.175,207.633 -6.258,5.394 -15.739,4.707 -21.157,-1.567 -5.406,-6.277 -4.707,-15.75 1.567,-21.16 53.871,-46.445 84.765,-113.84 84.765,-184.906 0,-69.988 -29.984,-136.289 -82.308,-182.664 -13.871,-1.414 -28.59,-2.645 -44,-3.699 61.762,39.113 102.887,108.004 102.887,186.363 0,72.172 -35.422,139.887 -94.75,181.137 -6.825,4.738 -16.149,3.054 -20.879,-3.75 -4.735,-6.801 -3.055,-16.153 3.75,-20.879 51.265,-35.649 81.879,-94.153 81.879,-156.508 0,-102.813 -81.934,-186.641 -183.915,-190.145 -2.003,-0.007 -3.945,-0.035 -5.968,-0.035 -2.481,0 -4.864,0.035 -7.321,0.043 -101.898,3.586 -183.753,87.379 -183.753,190.137 0,66.07 33.484,126.476 89.57,161.582 7.019,4.394 9.148,13.652 4.754,20.676 -4.391,7.011 -13.641,9.14 -20.672,4.754 C 208.063,457.641 169.313,387.73 169.313,311.254 c 0,-78.301 41.058,-147.149 102.742,-186.274 -15.563,1.083 -30.395,2.344 -44.379,3.79 -52.196,46.355 -82.11,112.593 -82.11,182.484 0,50.445 15.254,98.848 44.114,139.98 4.754,6.782 3.113,16.133 -3.668,20.895 -6.782,4.754 -16.141,3.109 -20.895,-3.668 -32.418,-46.207 -49.551,-100.566 -49.551,-157.207 0,-65.125 23.09,-127.461 64.434,-176.531 C 77.4102,149.93 30,173.91 30,185.516 c 0,3.925 11.7422,18.445 63.9141,33.175 7.9769,2.247 12.6129,10.536 10.3629,18.504 -2.25,7.981 -10.5856,12.618 -18.5036,10.364 C 28.0547,231.27 0,210.977 0,185.516 V 94.4414 C 0,19.7422 255.359,0 390.387,0 525.41,0 780.77,19.7422 780.77,94.4414 v 91.0746 c 0,25.402 -27.915,45.656 -85.344,61.929" style="fill:currentColor;fill-opacity:1;fill-rule:nonzero;stroke:none" transform="matrix(0.13333333,0,0,-0.13333333,0,133.33333)"/>
      <path id="path6" d="m 312.766,240.469 c 0,-8.285 6.711,-15 15,-15 8.285,0 15,6.715 15,15 v 47.621 h 47.621 c 8.285,0 15,6.715 15,15 0,8.285 -6.715,15 -15,15 h -62.621 c -8.289,0 -15,-6.715 -15,-15 v -62.621" style="fill:currentColor;fill-opacity:1;fill-rule:nonzero;stroke:none" transform="matrix(0.13333333,0,0,-0.13333333,0,133.33333)"/>
      <path id="path7" d="m 327.766,334.863 c 8.285,0 15,6.715 15,15 v 15.848 c 0,8.289 -6.715,15 -15,15 -8.289,0 -15,-6.711 -15,-15 v -15.848 c 0,-8.285 6.711,-15 15,-15" style="fill:currentColor;fill-opacity:1;fill-rule:nonzero;stroke:none" transform="matrix(0.13333333,0,0,-0.13333333,0,133.33333)"/>
      <path id="path8" d="m 283.945,318.09 h -18.804 c -8.286,0 -15,-6.715 -15,-15 0,-8.285 6.714,-15 15,-15 h 18.804 c 8.285,0 15,6.715 15,15 0,8.285 -6.715,15 -15,15" style="fill:currentColor;fill-opacity:1;fill-rule:nonzero;stroke:none" transform="matrix(0.13333333,0,0,-0.13333333,0,133.33333)"/>
      <path id="path9" d="m 480.727,404.414 c 0,0.184 -0.039,0.356 -0.047,0.535 -0.117,1.817 -0.512,3.551 -1.215,5.133 -0.051,0.109 -0.117,0.207 -0.172,0.313 -0.801,1.695 -1.895,3.214 -3.242,4.488 -0.043,0.043 -0.059,0.101 -0.106,0.14 -0.078,0.075 -0.179,0.09 -0.261,0.161 -1.352,1.199 -2.907,2.164 -4.629,2.812 -0.196,0.074 -0.387,0.117 -0.582,0.184 -1.489,0.492 -3.047,0.824 -4.703,0.824 -0.141,0 -0.274,-0.039 -0.415,-0.043 -0.183,0 -0.355,-0.039 -0.535,-0.055 -1.816,-0.113 -3.547,-0.508 -5.129,-1.211 -0.113,-0.05 -0.203,-0.121 -0.312,-0.172 -1.699,-0.8 -3.211,-1.894 -4.484,-3.242 -0.047,-0.043 -0.106,-0.058 -0.145,-0.101 l -41.145,-44.571 c -5.621,-6.089 -5.242,-15.578 0.844,-21.195 2.887,-2.668 6.531,-3.98 10.168,-3.98 4.043,0 8.074,1.621 11.028,4.824 l 15.125,16.387 v -116.25 h -27.973 c -8.285,0 -15,-6.715 -15,-15 0,-8.286 6.715,-15 15,-15 h 76.058 c 8.29,0 15,6.714 15,15 0,8.285 -6.71,15 -15,15 H 480.77 v 154.609 c 0,0.141 -0.04,0.273 -0.043,0.41" style="fill:currentColor;fill-opacity:1;fill-rule:nonzero;stroke:none" transform="matrix(0.13333333,0,0,-0.13333333,0,133.33333)"/>
    </g>
  </g>
</g>
</svg>
