<?xml version='1.0' encoding='UTF-8'?>
<svg xmlns="http://www.w3.org/2000/svg" version="1.1" viewBox="0 0 110 110" width="110" height="110" style="color:#37a49f" id="SIG_Icon20_Goals_RGB">
  <g transform="translate(4.9931,5.0051) scale(0.750028,0.749998)"><g>
    <g id="group-R5">
      <path id="path2" d="M 30,286.992 V 485.094 H 147.91 V 286.992 c 0,-32.512 -26.445,-58.957 -58.953,-58.957 C 56.4453,228.035 30,254.48 30,286.992 Z m 291.863,-88.957 c 8.282,0 15,6.715 15,15 0,8.289 -6.718,15 -15,15 h -166.48 c 13.965,15.715 22.527,36.328 22.527,58.957 V 500.094 969.898 H 732.363 V 802.031 c 0,-8.285 6.719,-15 15,-15 8.282,0 15,6.715 15,15 v 182.867 c 0,8.286 -6.718,15 -15,15 H 162.91 c -8.281,0 -15,-6.714 -15,-15 V 515.094 H 15 c -8.28125,0 -15,-6.715 -15,-15 L 0,286.992 c 0,-49.047 39.9023,-88.957 88.957,-88.957 0.0782,0 0.1524,0.012 0.2344,0.012 0.0352,0 0.0781,-0.012 0.1133,-0.012 H 321.863" style="fill:currentColor;fill-opacity:1;fill-rule:nonzero;stroke:none" transform="matrix(0.13333333,0,0,-0.13333333,0,133.32)"/>
      <path id="path3" d="m 709.895,240.68 c -10.481,-8.274 -23.098,-12.645 -36.489,-12.645 h -93.328 c -8.281,0 -15,-6.711 -15,-15 0,-8.285 6.719,-15 15,-15 h 93.328 c 19.914,0 39.477,6.785 55.078,19.098 6.504,5.133 7.61,14.566 2.485,21.066 -5.129,6.496 -14.563,7.617 -21.074,2.481" style="fill:currentColor;fill-opacity:1;fill-rule:nonzero;stroke:none" transform="matrix(0.13333333,0,0,-0.13333333,0,133.32)"/>
      <path id="path4" d="m 379.094,895.668 c -6.328,5.332 -15.781,4.527 -21.133,-1.801 l -69.887,-82.871 -39.59,32.934 c -6.375,5.297 -15.82,4.429 -21.121,-1.938 -5.293,-6.371 -4.425,-15.832 1.946,-21.129 l 51.043,-42.461 c 2.8,-2.328 6.203,-3.464 9.582,-3.464 4.265,0 8.511,1.808 11.472,5.332 l 79.485,94.261 c 5.339,6.332 4.539,15.797 -1.797,21.137" style="fill:currentColor;fill-opacity:1;fill-rule:nonzero;stroke:none" transform="matrix(0.13333333,0,0,-0.13333333,0,133.32)"/>
      <path id="path5" d="M 665.676,869.273 H 420.332 c -8.281,0 -15,-6.714 -15,-15 0,-8.289 6.719,-15 15,-15 h 245.344 c 8.277,0 15,6.711 15,15 0,8.286 -6.723,15 -15,15" style="fill:currentColor;fill-opacity:1;fill-rule:nonzero;stroke:none" transform="matrix(0.13333333,0,0,-0.13333333,0,133.32)"/>
      <path id="path6" d="m 680.676,796.293 c 0,8.285 -6.723,15 -15,15 H 420.332 c -8.281,0 -15,-6.715 -15,-15 0,-8.285 6.719,-15 15,-15 h 245.344 c 8.277,0 15,6.715 15,15" style="fill:currentColor;fill-opacity:1;fill-rule:nonzero;stroke:none" transform="matrix(0.13333333,0,0,-0.13333333,0,133.32)"/>
      <path id="path7" d="m 379.094,673.305 c -6.328,5.343 -15.781,4.523 -21.133,-1.801 l -69.887,-82.871 -39.59,32.933 c -6.375,5.305 -15.82,4.426 -21.121,-1.937 -5.293,-6.371 -4.425,-15.832 1.946,-21.129 l 51.043,-42.461 c 2.8,-2.328 6.203,-3.465 9.582,-3.465 4.265,0 8.511,1.809 11.472,5.332 l 79.485,94.262 c 5.339,6.332 4.539,15.797 -1.797,21.137" style="fill:currentColor;fill-opacity:1;fill-rule:nonzero;stroke:none" transform="matrix(0.13333333,0,0,-0.13333333,0,133.32)"/>
      <path id="path8" d="m 502.844,631.91 c 0,8.285 -6.723,15 -15,15 h -67.512 c -8.281,0 -15,-6.715 -15,-15 0,-8.289 6.719,-15 15,-15 h 67.512 c 8.277,0 15,6.711 15,15" style="fill:currentColor;fill-opacity:1;fill-rule:nonzero;stroke:none" transform="matrix(0.13333333,0,0,-0.13333333,0,133.32)"/>
      <path id="path9" d="m 420.332,558.926 h 48.508 c 8.277,0 15,6.715 15,15 0,8.285 -6.723,15 -15,15 h -48.508 c -8.281,0 -15,-6.715 -15,-15 0,-8.285 6.719,-15 15,-15" style="fill:currentColor;fill-opacity:1;fill-rule:nonzero;stroke:none" transform="matrix(0.13333333,0,0,-0.13333333,0,133.32)"/>
      <path id="path10" d="m 357.961,449.137 -69.887,-82.871 -39.59,32.933 c -6.375,5.297 -15.82,4.422 -21.121,-1.937 -5.293,-6.375 -4.425,-15.832 1.946,-21.129 l 51.043,-42.461 c 2.8,-2.328 6.203,-3.469 9.582,-3.469 4.265,0 8.511,1.813 11.472,5.332 l 79.485,94.266 c 5.339,6.332 4.539,15.793 -1.797,21.137 -6.328,5.339 -15.781,4.523 -21.133,-1.801" style="fill:currentColor;fill-opacity:1;fill-rule:nonzero;stroke:none" transform="matrix(0.13333333,0,0,-0.13333333,0,133.32)"/>
      <path id="path11" d="m 495,409.547 c 0,8.285 -6.719,15 -15,15 h -59.668 c -8.281,0 -15,-6.715 -15,-15 0,-8.289 6.719,-15 15,-15 H 480 c 8.281,0 15,6.711 15,15" style="fill:currentColor;fill-opacity:1;fill-rule:nonzero;stroke:none" transform="matrix(0.13333333,0,0,-0.13333333,0,133.32)"/>
      <path id="path12" d="m 420.332,366.563 c -8.281,0 -15,-6.715 -15,-15 0,-8.286 6.719,-15 15,-15 h 28.906 c 8.282,0 15,6.714 15,15 0,8.285 -6.718,15 -15,15 h -28.906" style="fill:currentColor;fill-opacity:1;fill-rule:nonzero;stroke:none" transform="matrix(0.13333333,0,0,-0.13333333,0,133.32)"/>
      <path id="path13" d="M 907.141,361.238 C 866.516,320.613 812.5,298.242 755.039,298.242 c -57.449,0 -111.476,22.371 -152.101,62.996 -40.625,40.633 -62.997,94.645 -62.997,152.102 0,57.457 22.372,111.469 62.997,152.098 40.636,40.632 94.652,63.003 152.101,63.003 57.461,0 111.477,-22.371 152.102,-63.003 40.625,-40.629 62.996,-94.641 62.996,-152.098 0,-57.457 -22.371,-111.469 -62.996,-152.102 z M 515.586,249.691 487.512,277.77 518.594,308.848 546.672,280.77 Z M 301.711,35.8164 c -7.5,-7.5 -20.59,-7.4961 -28.066,-0.0078 -0.012,0.0078 -0.012,0.0078 -0.012,0.0117 -3.75,3.7461 -5.82,8.7305 -5.82,14.0313 0,5.3047 2.07,10.289 5.82,14.039 L 466.301,256.559 494.375,228.48 Z M 928.352,686.648 c -46.289,46.297 -107.844,71.793 -173.313,71.793 -65.469,0 -127.012,-25.496 -173.309,-71.793 -46.3,-46.289 -71.789,-107.839 -71.789,-173.308 0,-60.442 21.77,-117.516 61.536,-162.356 l -26.301,-26.296 -15.977,15.98 c -2.812,2.812 -6.633,4.395 -10.605,4.395 -3.977,0 -7.793,-1.583 -10.606,-4.395 l -52.285,-52.281 c 0,-0.004 -0.012,-0.004 -0.012,-0.008 0,-0.004 0,-0.012 -0.007,-0.012 L 252.422,85.1055 c -9.414,-9.418 -14.609,-21.9375 -14.609,-35.2539 0,-13.3125 5.183,-25.8282 14.597,-35.2422 0.012,-0.0039 0.012,-0.0039 0.012,-0.0117 C 261.836,5.18359 274.355,0 287.664,0 c 13.32,0 25.844,5.18359 35.258,14.6055 L 578.484,270.168 c 5.864,5.852 5.864,15.348 0,21.207 l -12.097,12.102 26.301,26.304 c 44.839,-39.765 101.914,-61.539 162.351,-61.539 65.469,0 127.024,25.492 173.313,71.785 46.296,46.289 71.788,107.844 71.788,173.313 0,65.469 -25.492,127.019 -71.788,173.308" style="fill:currentColor;fill-opacity:1;fill-rule:nonzero;stroke:none" transform="matrix(0.13333333,0,0,-0.13333333,0,133.32)"/>
      <path id="path14" d="m 868.145,400.234 c -30.215,-30.211 -70.379,-46.851 -113.106,-46.851 -42.726,0 -82.891,16.64 -113.105,46.851 -30.215,30.215 -46.856,70.379 -46.856,113.11 0,42.726 16.641,82.89 46.856,113.105 30.214,30.211 70.379,46.852 113.105,46.852 42.727,0 82.891,-16.641 113.106,-46.852 C 898.359,596.234 915,556.07 915,513.344 c 0,-42.731 -16.641,-82.895 -46.855,-113.11 z m 21.21,247.426 c -35.878,35.879 -83.574,55.641 -134.316,55.641 -50.742,0 -98.437,-19.762 -134.316,-55.641 -35.879,-35.879 -55.645,-83.578 -55.645,-134.316 0,-50.742 19.766,-98.442 55.645,-134.321 35.879,-35.878 83.574,-55.64 134.316,-55.64 50.742,0 98.438,19.762 134.316,55.64 35.879,35.879 55.645,83.579 55.645,134.321 0,50.738 -19.766,98.437 -55.645,134.316" style="fill:currentColor;fill-opacity:1;fill-rule:nonzero;stroke:none" transform="matrix(0.13333333,0,0,-0.13333333,0,133.32)"/>
      <path id="path15" d="m 783.301,642.418 c -9.446,2.766 -19.285,4.004 -31.934,4.004 -8.281,0 -15,-6.715 -15,-15 0,-8.289 6.719,-15 15,-15 12.383,0 19.055,-1.492 23.477,-2.793 1.418,-0.41 2.832,-0.613 4.238,-0.613 6.484,0 12.461,4.246 14.387,10.781 2.332,7.949 -2.219,16.285 -10.168,18.621" style="fill:currentColor;fill-opacity:1;fill-rule:nonzero;stroke:none" transform="matrix(0.13333333,0,0,-0.13333333,0,133.32)"/>
      <path id="path16" d="m 847.637,605.938 c -3.172,3.179 -6.574,6.246 -10.086,9.117 -6.418,5.226 -15.871,4.285 -21.106,-2.137 -5.234,-6.414 -4.289,-15.867 2.141,-21.105 2.691,-2.204 5.32,-4.567 7.84,-7.086 24.14,-24.145 34.609,-58.61 27.976,-92.188 -1.597,-8.129 3.684,-16.016 11.821,-17.621 0.972,-0.195 1.953,-0.289 2.918,-0.289 7.011,0 13.293,4.957 14.699,12.098 8.562,43.414 -4.973,87.98 -36.203,119.211" style="fill:currentColor;fill-opacity:1;fill-rule:nonzero;stroke:none" transform="matrix(0.13333333,0,0,-0.13333333,0,133.32)"/>
    </g>
  </g>
</g>
</svg>
